<svg width="100" height="100" viewBox="0 0 100 100" fill="none" xmlns="http://www.w3.org/2000/svg">
<g clip-path="url(#clip0_291_258)">
<path d="M70.3125 40.625C55.625 40.625 43.75 52.5 43.75 67.1875C43.75 81.875 55.625 93.75 70.3125 93.75C85 93.75 96.875 81.875 96.875 67.1875C96.875 52.5 85 40.625 70.3125 40.625ZM90.625 65.625H81.25C81.25 59.375 80.3125 53.125 78.4375 48.4375C85 51.5625 90 57.8125 90.625 65.625ZM70.3125 87.5C69.0625 86.875 66.25 81.875 65.625 71.875H74.6875C74.0625 81.875 71.5625 86.875 70.3125 87.5ZM65.625 65.625C65.9375 53.75 69.0625 47.5 70 46.875C71.25 47.5 74.375 53.75 74.6875 65.625H65.625ZM62.1875 48.4375C60.3125 53.125 59.6875 59.375 59.375 65.625H50C50.625 57.8125 55.625 51.5625 62.1875 48.4375ZM50.625 71.875H59.375C59.6875 76.875 60.625 81.875 62.1875 85.9375C56.5625 83.4375 52.1875 78.125 50.625 71.875ZM78.4375 85.9375C80 81.875 80.9375 77.1875 81.25 71.875H90.3125C88.4375 78.125 84.0625 83.4375 78.4375 85.9375Z" fill="white"/>
<path d="M80.625 31.25C77.8125 16.875 65 6.25 50 6.25C35 6.25 22.1875 16.875 19.375 31.5625C8.4375 33.75 0 43.125 0 54.6875C0 67.5 10.625 78.125 23.4375 78.125H34.375V71.875H23.4375C14.0625 71.875 6.25 64.0625 6.25 54.6875C6.25 45.625 13.125 38.125 22.1875 37.5H25V34.6875C26.5625 22.1875 37.1875 12.5 50 12.5C61.5625 12.5 71.25 20.625 74.0625 31.25H80.625Z" fill="white"/>
</g>
<defs>
<clipPath id="clip0_291_258">
<rect width="100" height="100" fill="white"/>
</clipPath>
</defs>
</svg>
