<svg width="50" height="50" viewBox="0 0 50 50" fill="none" xmlns="http://www.w3.org/2000/svg">
<g clip-path="url(#clip0_296_463)">
<path d="M25.2149 0.00010449C26.0336 0.00010449 26.8399 0.0532295 27.5899 0.178229C28.3288 0.273414 29.0577 0.434472 29.768 0.659479C30.4763 0.871979 31.1784 1.14594 31.8742 1.48135C32.5524 1.80323 33.2492 2.19698 33.9461 2.6251C35.1242 3.3751 36.2836 3.98135 37.4649 4.46573C39.7897 5.39836 42.249 5.95226 44.7492 6.10635C46.0138 6.2001 47.3232 6.24802 48.6774 6.2501V18.7501C48.6774 21.123 48.3742 23.3793 47.768 25.5189C47.1855 27.632 46.358 29.6698 45.3024 31.5907C44.2512 33.5091 43.0073 35.3153 41.5899 36.9814C40.1516 38.6861 38.5934 40.286 36.9274 41.7689C35.2378 43.2542 33.4606 44.6369 31.6055 45.9095C29.7472 47.2011 27.8784 48.3918 25.9992 49.4814L25.2492 49.9282L24.4992 49.4814C22.5716 48.3657 20.6889 47.1741 18.8555 45.9095C16.9904 44.6506 15.2124 43.2672 13.5336 41.7689C11.8686 40.2859 10.3115 38.686 8.87423 36.9814C7.46158 35.3075 6.21215 33.5024 5.14298 31.5907C4.1063 29.6608 3.27969 27.6252 2.67736 25.5189C2.0713 23.3141 1.77058 21.0366 1.78361 18.7501V6.2501C3.13778 6.24802 4.44819 6.2001 5.71486 6.10635C6.96399 6.02144 8.20499 5.84282 9.42736 5.57198C10.6242 5.30323 11.8211 4.94698 12.9992 4.46573C14.2214 3.97169 15.3935 3.36161 16.4992 2.64385C17.8742 1.7501 19.268 1.09073 20.643 0.656354C22.1239 0.202884 23.6662 -0.0184897 25.2149 0.00010449ZM45.5336 9.32198C43.1682 9.2062 40.8248 8.81074 38.5524 8.14385C36.2928 7.46807 34.1402 6.47594 32.1586 5.19698C31.1305 4.52388 30.0149 3.99499 28.843 3.6251C27.6717 3.27185 26.4539 3.09697 25.2305 3.10635C23.998 3.09884 22.7712 3.27365 21.5899 3.6251C20.4166 3.98396 19.3026 4.5136 18.2836 5.19698C16.2979 6.48164 14.1399 7.47803 11.8742 8.15635C9.65965 8.8001 7.33778 9.19385 4.90861 9.3376V18.7657C4.90861 20.8345 5.17736 22.822 5.71486 24.7282C6.26292 26.6208 7.01745 28.4475 7.96486 30.1751C8.924 31.9206 10.0546 33.5662 11.3399 35.0876C12.643 36.622 14.0336 38.0501 15.5336 39.4064C17.0336 40.7626 18.6055 42.0189 20.2492 43.1751C21.9096 44.3334 23.5701 45.3928 25.2305 46.3532C26.9304 45.3653 28.5871 44.305 30.1961 43.1751C31.8527 42.022 33.4331 40.7632 34.9274 39.4064C36.4274 38.0501 37.8211 36.622 39.1242 35.0876C40.4095 33.5662 41.5401 31.9206 42.4992 30.1751C43.4419 28.4493 44.1852 26.622 44.7149 24.7282C45.2693 22.7896 45.5449 20.782 45.5336 18.7657V9.32198Z" fill="#FFD67A"/>
<path fill-rule="evenodd" clip-rule="evenodd" d="M36.8648 14.7157L35.4898 13.5344L34.2211 13.6438L20.5961 29.7313L15.9555 23.1063L14.7055 22.8938L13.2586 23.9282L13.043 25.1782L19.0086 33.6969L19.6867 34.0719L21.1148 34.1594L21.8461 33.8407L36.9555 15.9813L36.8648 14.7157Z" fill="#FFD67A"/>
</g>
<defs>
<clipPath id="clip0_296_463">
<rect width="50" height="50" fill="white"/>
</clipPath>
</defs>
</svg>
