<svg width="50" height="50" viewBox="0 0 50 50" fill="none" xmlns="http://www.w3.org/2000/svg">
<path d="M41.667 8.3335H8.33366C6.04199 8.3335 4.18783 10.2085 4.18783 12.5002L4.16699 37.5002C4.16699 39.7918 6.04199 41.6668 8.33366 41.6668H41.667C43.9587 41.6668 45.8337 39.7918 45.8337 37.5002V12.5002C45.8337 10.2085 43.9587 8.3335 41.667 8.3335ZM40.8337 17.1877L26.1045 26.396C25.4378 26.8127 24.5628 26.8127 23.8962 26.396L9.16699 17.1877C8.95809 17.0704 8.77516 16.912 8.62926 16.7219C8.48336 16.5319 8.37754 16.3143 8.31819 16.0822C8.25884 15.8501 8.24721 15.6084 8.28399 15.3716C8.32076 15.1349 8.40519 14.9081 8.53216 14.705C8.65913 14.5018 8.826 14.3265 9.02267 14.1897C9.21934 14.0529 9.44172 13.9575 9.67636 13.9091C9.91099 13.8608 10.153 13.8605 10.3877 13.9084C10.6225 13.9563 10.845 14.0513 11.042 14.1877L25.0003 22.9168L38.9587 14.1877C39.1556 14.0513 39.3782 13.9563 39.6129 13.9084C39.8477 13.8605 40.0897 13.8608 40.3243 13.9091C40.5589 13.9575 40.7813 14.0529 40.978 14.1897C41.1747 14.3265 41.3415 14.5018 41.4685 14.705C41.5955 14.9081 41.6799 15.1349 41.7167 15.3716C41.7534 15.6084 41.7418 15.8501 41.6825 16.0822C41.6231 16.3143 41.5173 16.5319 41.3714 16.7219C41.2255 16.912 41.0426 17.0704 40.8337 17.1877Z" fill="black"/>
</svg>
