<svg width="50" height="47" viewBox="0 0 50 47" fill="none" xmlns="http://www.w3.org/2000/svg">
<path d="M19.2308 0C8.74423 0 0 7.21154 0 16.3462C0 21.0192 2.55769 25.0923 6.19038 28.0654C5.95394 29.6446 5.31187 31.1355 4.32692 32.3923C3.92479 32.9081 3.504 33.4091 3.06538 33.8942C2.83852 34.1332 2.63682 34.3948 2.46346 34.675C2.35385 34.8538 2.18269 35.0538 2.10385 35.4577C2.025 35.8615 2.13269 36.5212 2.46346 37.0192L2.70385 37.4404L3.18462 37.6808C4.86731 38.5212 6.68462 38.3731 8.35385 37.9212C10.0212 37.4673 11.625 36.6904 13.1615 35.8769C14.6981 35.0635 16.1558 34.2154 17.3077 33.5942C17.4692 33.5077 17.5731 33.4865 17.7288 33.4135C20.7615 37.5827 26.3154 40.3846 32.5115 40.3846C32.5712 40.3923 32.6269 40.3846 32.6923 40.3846C35.1923 40.3846 43.2692 48.6423 48.0769 45.3731C48.2692 44.6058 43.85 42.6808 43.6288 36.9596C47.3923 34.3 49.8212 30.3442 49.8212 25.9615C49.8212 19.4769 44.675 14.1192 37.8019 12.2C35.6269 5.12308 28.0654 0 19.2308 0ZM19.2308 3.84615C27.975 3.84615 34.6154 9.71154 34.6154 16.3462C34.6154 22.9808 27.975 28.8462 19.2308 28.8462C17.6692 28.8462 16.7731 29.4846 15.5038 30.1692C14.2346 30.8538 12.7788 31.7 11.3577 32.4519C10.1269 33.1019 8.95385 33.6019 7.87308 33.9538C8.925 32.4346 10.0231 30.4365 10.2154 27.6442L10.2769 26.5615L9.375 25.9019C5.94808 23.5 3.84615 20.0442 3.84615 16.3462C3.84615 9.71154 10.4865 3.84615 19.2308 3.84615Z" fill="#776DF0"/>
</svg>
