<svg width="48" height="50" viewBox="0 0 48 50" fill="none" xmlns="http://www.w3.org/2000/svg">
<path d="M24.2149 0.00010449C25.0336 0.00010449 25.8399 0.0532295 26.5899 0.178229C27.3288 0.273414 28.0577 0.434472 28.768 0.659479C29.4763 0.871979 30.1784 1.14594 30.8742 1.48135C31.5524 1.80323 32.2492 2.19698 32.9461 2.6251C34.1242 3.3751 35.2836 3.98135 36.4649 4.46573C38.7897 5.39836 41.249 5.95226 43.7492 6.10635C45.0138 6.2001 46.3232 6.24802 47.6774 6.2501V18.7501C47.6774 21.123 47.3742 23.3793 46.768 25.5189C46.1855 27.632 45.358 29.6698 44.3024 31.5907C43.2512 33.5091 42.0073 35.3153 40.5899 36.9814C39.1516 38.6861 37.5934 40.286 35.9274 41.7689C34.2378 43.2542 32.4606 44.6369 30.6055 45.9095C28.7472 47.2011 26.8784 48.3918 24.9992 49.4814L24.2492 49.9282L23.4992 49.4814C21.5716 48.3657 19.6889 47.1741 17.8555 45.9095C15.9904 44.6506 14.2124 43.2672 12.5336 41.7689C10.8686 40.2859 9.31152 38.686 7.87423 36.9814C6.46158 35.3075 5.21215 33.5024 4.14298 31.5907C3.1063 29.6608 2.27969 27.6252 1.67736 25.5189C1.0713 23.3141 0.770583 21.0366 0.783609 18.7501V6.2501C2.13778 6.24802 3.44819 6.2001 4.71486 6.10635C5.96399 6.02144 7.20499 5.84282 8.42736 5.57198C9.62423 5.30323 10.8211 4.94698 11.9992 4.46573C13.2214 3.97169 14.3935 3.36161 15.4992 2.64385C16.8742 1.7501 18.268 1.09073 19.643 0.656354C21.1239 0.202884 22.6662 -0.0184897 24.2149 0.00010449ZM44.5336 9.32198C42.1682 9.2062 39.8248 8.81074 37.5524 8.14385C35.2928 7.46807 33.1402 6.47594 31.1586 5.19698C30.1305 4.52388 29.0149 3.99499 27.843 3.6251C26.6717 3.27185 25.4539 3.09697 24.2305 3.10635C22.998 3.09884 21.7712 3.27365 20.5899 3.6251C19.4166 3.98396 18.3026 4.5136 17.2836 5.19698C15.2979 6.48164 13.1399 7.47803 10.8742 8.15635C8.65965 8.8001 6.33778 9.19385 3.90861 9.3376V18.7657C3.90861 20.8345 4.17736 22.822 4.71486 24.7282C5.26292 26.6208 6.01745 28.4475 6.96486 30.1751C7.924 31.9206 9.05458 33.5662 10.3399 35.0876C11.643 36.622 13.0336 38.0501 14.5336 39.4064C16.0336 40.7626 17.6055 42.0189 19.2492 43.1751C20.9096 44.3334 22.5701 45.3928 24.2305 46.3532C25.9304 45.3653 27.5871 44.305 29.1961 43.1751C30.8527 42.022 32.4331 40.7632 33.9274 39.4064C35.4274 38.0501 36.8211 36.622 38.1242 35.0876C39.4095 33.5662 40.5401 31.9206 41.4992 30.1751C42.4419 28.4493 43.1852 26.622 43.7149 24.7282C44.2693 22.7896 44.5449 20.782 44.5336 18.7657V9.32198Z" fill="#FFD67A"/>
<path fill-rule="evenodd" clip-rule="evenodd" d="M35.8648 14.7159L34.4898 13.5347L33.2211 13.644L19.5961 29.7315L14.9555 23.1065L13.7055 22.894L12.2586 23.9284L12.043 25.1784L18.0086 33.6972L18.6867 34.0722L20.1148 34.1597L20.8461 33.8409L35.9555 15.9815L35.8648 14.7159Z" fill="#FFD67A"/>
</svg>
