<svg width="50" height="50" viewBox="0 0 50 50" fill="none" xmlns="http://www.w3.org/2000/svg">
<path d="M21.4592 14.0417C21.5987 14.1922 21.7073 14.3686 21.7786 14.5611C21.8499 14.7535 21.8827 14.9581 21.8749 15.1631C21.8672 15.3682 21.8191 15.5697 21.7335 15.7562C21.6479 15.9427 21.5263 16.1105 21.3759 16.25L15.3175 21.875L21.3759 27.5C21.5263 27.6396 21.6478 27.8074 21.7335 27.9939C21.8191 28.1803 21.8671 28.3819 21.8749 28.5869C21.8826 28.792 21.8499 28.9966 21.7786 29.189C21.7072 29.3814 21.5987 29.5579 21.4592 29.7084C21.3197 29.8588 21.1519 29.9804 20.9654 30.066C20.7789 30.1516 20.5773 30.1997 20.3723 30.2074C20.1672 30.2151 19.9626 30.1824 19.7702 30.1111C19.5778 30.0398 19.4013 29.9312 19.2509 29.7917L11.9592 23.0209C11.8014 22.8746 11.6756 22.6973 11.5895 22.5002C11.5034 22.303 11.459 22.0902 11.459 21.875C11.459 21.6599 11.5034 21.4471 11.5895 21.2499C11.6756 21.0527 11.8014 20.8755 11.9592 20.7292L19.2509 13.9584C19.4013 13.8188 19.5778 13.7103 19.7702 13.6389C19.9626 13.5676 20.1672 13.5349 20.3723 13.5426C20.5774 13.5504 20.7789 13.5984 20.9654 13.684C21.1519 13.7697 21.3197 13.8912 21.4592 14.0417ZM28.6259 16.25C28.4754 16.1105 28.3539 15.9427 28.2682 15.7562C28.1826 15.5697 28.1346 15.3682 28.1268 15.1631C28.1191 14.9581 28.1518 14.7535 28.2231 14.5611C28.2945 14.3687 28.403 14.1922 28.5425 14.0417C28.6821 13.8912 28.8499 13.7697 29.0363 13.6841C29.2228 13.5985 29.4244 13.5504 29.6294 13.5427C29.8345 13.5349 30.0391 13.5677 30.2315 13.639C30.4239 13.7103 30.6004 13.8188 30.7509 13.9584L38.0425 20.7292C38.2003 20.8755 38.3262 21.0527 38.4122 21.2499C38.4983 21.4471 38.5427 21.6599 38.5427 21.875C38.5427 22.0902 38.4983 22.303 38.4122 22.5002C38.3262 22.6973 38.2003 22.8746 38.0425 23.0209L30.7509 29.7917C30.6004 29.9312 30.4239 30.0398 30.2315 30.1111C30.0391 30.1824 29.8345 30.2151 29.6294 30.2074C29.4244 30.1997 29.2228 30.1516 29.0363 30.066C28.8499 29.9804 28.6821 29.8588 28.5425 29.7084C28.403 29.5579 28.2945 29.3814 28.2231 29.189C28.1518 28.9966 28.1191 28.792 28.1268 28.5869C28.1346 28.3819 28.1826 28.1803 28.2682 27.9939C28.3539 27.8074 28.4754 27.6396 28.6259 27.5L34.6842 21.875L28.6259 16.25Z" fill="#41DEC3"/>
<path d="M3.125 8.85433C3.125 6.84183 4.75833 5.2085 6.77083 5.2085H43.2292C45.2417 5.2085 46.875 6.84183 46.875 8.85433V34.896C46.875 35.8629 46.4909 36.7903 45.8072 37.474C45.1234 38.1577 44.1961 38.5418 43.2292 38.5418H23.0417L15.5979 45.9856C15.173 46.4089 14.6323 46.6969 14.044 46.8134C13.4557 46.9298 12.846 46.8695 12.2919 46.64C11.7378 46.4105 11.264 46.0221 10.9303 45.5238C10.5966 45.0255 10.4179 44.4395 10.4167 43.8397V38.5418H6.77083C5.8039 38.5418 4.87657 38.1577 4.19284 37.474C3.50911 36.7903 3.125 35.8629 3.125 34.896V8.85433ZM6.77083 8.3335C6.6327 8.3335 6.50022 8.38837 6.40255 8.48604C6.30487 8.58372 6.25 8.7162 6.25 8.85433V34.896C6.25 35.1835 6.48333 35.4168 6.77083 35.4168H11.9792C12.3936 35.4168 12.791 35.5814 13.084 35.8745C13.377 36.1675 13.5417 36.5649 13.5417 36.9793V43.6252L21.2917 35.8752C21.5844 35.5821 21.9816 35.4172 22.3958 35.4168H43.2292C43.3673 35.4168 43.4998 35.362 43.5975 35.2643C43.6951 35.1666 43.75 35.0341 43.75 34.896V8.85433C43.75 8.7162 43.6951 8.58372 43.5975 8.48604C43.4998 8.38837 43.3673 8.3335 43.2292 8.3335H6.77083Z" fill="#41DEC3"/>
</svg>
