<svg width="36" height="44" viewBox="0 0 36 44" fill="none" xmlns="http://www.w3.org/2000/svg">
<path d="M1.33398 7.4165C1.33398 5.8665 1.33398 5.0915 1.52148 4.45817C1.73785 3.72235 2.13542 3.0526 2.67775 2.51027C3.22008 1.96794 3.88983 1.57037 4.62565 1.354C5.25898 1.1665 6.03398 1.1665 7.58398 1.1665H22.1673C23.7173 1.1665 24.4923 1.1665 25.1257 1.354C25.8615 1.57037 26.5312 1.96794 27.0736 2.51027C27.6159 3.0526 28.0134 3.72235 28.2298 4.45817C28.4173 5.0915 28.4173 5.8665 28.4173 7.4165C28.4173 8.9665 28.4173 9.7415 28.2298 10.3748C28.0134 11.1107 27.6159 11.7804 27.0736 12.3227C26.5312 12.8651 25.8615 13.2626 25.1257 13.479C24.4923 13.6665 23.7173 13.6665 22.1673 13.6665H7.58398C6.03398 13.6665 5.25898 13.6665 4.62565 13.479C3.88983 13.2626 3.22008 12.8651 2.67775 12.3227C2.13542 11.7804 1.73785 11.1107 1.52148 10.3748C1.33398 9.7415 1.33398 8.9665 1.33398 7.4165ZM18.0007 33.4582C18.0007 32.4873 18.0007 32.0019 18.159 31.6186C18.3709 31.1091 18.7762 30.7045 19.2861 30.4936C19.6694 30.3332 20.1548 30.3332 21.1257 30.3332C22.0965 30.3332 22.5819 30.3332 22.9652 30.4915C23.4747 30.7034 23.8793 31.1087 24.0902 31.6186C24.2507 32.0019 24.2507 32.4873 24.2507 33.4582V39.7082C24.2507 40.679 24.2507 41.1644 24.0923 41.5478C23.8804 42.0572 23.4751 42.4618 22.9652 42.6728C22.5819 42.8332 22.0965 42.8332 21.1257 42.8332C20.1548 42.8332 19.6694 42.8332 19.2861 42.6748C18.7766 42.4629 18.372 42.0576 18.1611 41.5478C18.0007 41.1644 18.0007 40.679 18.0007 39.7082V33.4582Z" stroke="#7D75FF" stroke-width="2" stroke-linecap="round" stroke-linejoin="round"/>
<path d="M28.9354 7.4165C30.7167 7.4165 31.6062 7.4165 32.3104 7.73317C34.6604 8.79567 34.6667 11.2957 34.6667 13.6748C34.6667 15.6686 34.6667 16.6644 34.3958 17.504C33.5229 20.204 29.9562 21.5165 26.5083 22.4936C24.0437 23.1936 22.8104 23.5415 21.9667 24.6582C21.125 25.7728 21.125 27.0811 21.125 29.6998V30.3332" stroke="#7D75FF" stroke-width="2" stroke-linecap="round" stroke-linejoin="round"/>
</svg>
