<svg width="32" height="44" viewBox="0 0 32 44" fill="none" xmlns="http://www.w3.org/2000/svg">
<path d="M8.1874 34.5H23.8124V37.625H8.1874V34.5ZM11.3124 40.75H20.6874V43.875H11.3124V40.75ZM15.9999 0.125C11.8559 0.125 7.88161 1.7712 4.95135 4.70146C2.0211 7.63171 0.374897 11.606 0.374897 15.75C0.269231 18.0208 0.704231 20.2843 1.64411 22.3542C2.58399 24.4241 4.00188 26.2413 5.78115 27.6563C7.34365 29.1094 8.1874 29.9375 8.1874 31.375H11.3124C11.3124 28.5 9.57802 26.8906 7.89052 25.3438C6.43015 24.2254 5.26626 22.7661 4.5008 21.0935C3.73535 19.4209 3.39168 17.5862 3.4999 15.75C3.4999 12.4348 4.81686 9.25537 7.16106 6.91117C9.50527 4.56696 12.6847 3.25 15.9999 3.25C19.3151 3.25 22.4945 4.56696 24.8387 6.91117C27.1829 9.25537 28.4999 12.4348 28.4999 15.75C28.6063 17.5876 28.2602 19.4232 27.492 21.0958C26.7238 22.7685 25.5569 24.2271 24.0936 25.3438C22.4218 26.9062 20.6874 28.4688 20.6874 31.375H23.8124C23.8124 29.9375 24.6405 29.1094 26.2186 27.6406C27.9967 26.2281 29.4139 24.4136 30.3538 22.3464C31.2937 20.2792 31.7293 18.0184 31.6249 15.75C31.6249 13.6981 31.2207 11.6663 30.4355 9.77057C29.6503 7.87486 28.4994 6.15237 27.0484 4.70146C25.5975 3.25054 23.875 2.09961 21.9793 1.31438C20.0836 0.529153 18.0518 0.125 15.9999 0.125Z" fill="#48DBC2"/>
</svg>
