<svg width="42" height="44" viewBox="0 0 42 44" fill="none" xmlns="http://www.w3.org/2000/svg">
<path d="M41.3125 9.5C41.3125 9.0856 41.1479 8.68817 40.8549 8.39515C40.5618 8.10212 40.1644 7.9375 39.75 7.9375H33.5C33.0856 7.9375 32.6882 8.10212 32.3951 8.39515C32.1021 8.68817 31.9375 9.0856 31.9375 9.5V20.4375H28.8125V1.6875C28.8125 1.2731 28.6479 0.875671 28.3549 0.582646C28.0618 0.28962 27.6644 0.125 27.25 0.125H21C20.5856 0.125 20.1882 0.28962 19.8951 0.582646C19.6021 0.875671 19.4375 1.2731 19.4375 1.6875V20.4375H16.3125V4.8125C16.3125 4.3981 16.1479 4.00067 15.8549 3.70765C15.5618 3.41462 15.1644 3.25 14.75 3.25H8.5C8.0856 3.25 7.68817 3.41462 7.39515 3.70765C7.10212 4.00067 6.9375 4.3981 6.9375 4.8125V20.4375H0.6875V39.1875C0.6875 39.6019 0.85212 39.9993 1.14515 40.2924C1.43817 40.5854 1.8356 40.75 2.25 40.75H8.5C8.9144 40.75 9.31183 40.5854 9.60485 40.2924C9.89788 39.9993 10.0625 39.6019 10.0625 39.1875V23.5625H13.1875V31.375C13.1875 31.7894 13.3521 32.1868 13.6451 32.4799C13.9382 32.7729 14.3356 32.9375 14.75 32.9375H21C21.4144 32.9375 21.8118 32.7729 22.1049 32.4799C22.3979 32.1868 22.5625 31.7894 22.5625 31.375V23.5625H25.6875V42.3125C25.6875 42.7269 25.8521 43.1243 26.1451 43.4174C26.4382 43.7104 26.8356 43.875 27.25 43.875H33.5C33.9144 43.875 34.3118 43.7104 34.6049 43.4174C34.8979 43.1243 35.0625 42.7269 35.0625 42.3125V23.5625H41.3125V9.5ZM6.9375 37.625H3.8125V23.5625H6.9375V37.625ZM19.4375 29.8125H16.3125V23.5625H19.4375V29.8125ZM22.5625 20.4375V3.25H25.6875V20.4375H22.5625ZM38.1875 20.4375H35.0625V11.0625H38.1875V20.4375Z" fill="#FFD67A"/>
</svg>
