<svg width="50" height="50" viewBox="0 0 50 50" fill="none" xmlns="http://www.w3.org/2000/svg">
<path d="M8.33398 10.4167C8.33398 8.86675 8.33398 8.09175 8.52148 7.45841C8.73785 6.7226 9.13542 6.05284 9.67775 5.51051C10.2201 4.96818 10.8898 4.57062 11.6257 4.35425C12.259 4.16675 13.034 4.16675 14.584 4.16675H29.1673C30.7173 4.16675 31.4923 4.16675 32.1257 4.35425C32.8615 4.57062 33.5312 4.96818 34.0736 5.51051C34.6159 6.05284 35.0134 6.7226 35.2298 7.45841C35.4173 8.09175 35.4173 8.86675 35.4173 10.4167C35.4173 11.9667 35.4173 12.7417 35.2298 13.3751C35.0134 14.1109 34.6159 14.7807 34.0736 15.323C33.5312 15.8653 32.8615 16.2629 32.1257 16.4792C31.4923 16.6667 30.7173 16.6667 29.1673 16.6667H14.584C13.034 16.6667 12.259 16.6667 11.6257 16.4792C10.8898 16.2629 10.2201 15.8653 9.67775 15.323C9.13542 14.7807 8.73785 14.1109 8.52148 13.3751C8.33398 12.7417 8.33398 11.9667 8.33398 10.4167ZM25.0007 36.4584C25.0007 35.4876 25.0007 35.0022 25.159 34.6188C25.3709 34.1094 25.7762 33.7048 26.2861 33.4938C26.6694 33.3334 27.1548 33.3334 28.1257 33.3334C29.0965 33.3334 29.5819 33.3334 29.9652 33.4918C30.4747 33.7036 30.8793 34.109 31.0902 34.6188C31.2507 35.0022 31.2507 35.4876 31.2507 36.4584V42.7084C31.2507 43.6793 31.2507 44.1647 31.0923 44.548C30.8804 45.0575 30.4751 45.4621 29.9652 45.673C29.5819 45.8334 29.0965 45.8334 28.1257 45.8334C27.1548 45.8334 26.6694 45.8334 26.2861 45.6751C25.7766 45.4632 25.372 45.0578 25.1611 44.548C25.0007 44.1647 25.0007 43.6793 25.0007 42.7084V36.4584Z" stroke="#7D75FF" stroke-width="2" stroke-linecap="round" stroke-linejoin="round"/>
<path d="M35.9354 10.4167C37.7167 10.4167 38.6062 10.4167 39.3104 10.7334C41.6604 11.7959 41.6667 14.2959 41.6667 16.6751C41.6667 18.6688 41.6667 19.6647 41.3958 20.5042C40.5229 23.2042 36.9562 24.5167 33.5083 25.4938C31.0437 26.1938 29.8104 26.5417 28.9667 27.6584C28.125 28.773 28.125 30.0813 28.125 32.7001V33.3334" stroke="#7D75FF" stroke-width="2" stroke-linecap="round" stroke-linejoin="round"/>
</svg>
