<svg width="50" height="50" viewBox="0 0 50 50" fill="none" xmlns="http://www.w3.org/2000/svg">
<g clip-path="url(#clip0_360_215)">
<path d="M24.8833 0C18.2732 0.0308478 11.9442 2.67838 7.28103 7.36345C2.61783 12.0485 -7.19772e-05 18.3898 1.48424e-09 25C1.48425e-09 31.6304 2.63392 37.9893 7.32233 42.6777C12.0107 47.3661 18.3696 50 25 50C31.6304 50 37.9893 47.3661 42.6777 42.6777C47.3661 37.9893 50 31.6304 50 25C50 18.3696 47.3661 12.0107 42.6777 7.32233C37.9893 2.63392 31.6304 0 25 0L24.8833 0ZM35.2208 15.05C35.4292 15.0458 35.8896 15.0979 36.1896 15.3417C36.3899 15.514 36.5173 15.756 36.5458 16.0187C36.5792 16.2125 36.6208 16.6562 36.5875 17.0021C36.2125 20.9562 34.5833 30.5479 33.7542 34.975C33.4042 36.85 32.7146 37.4771 32.0458 37.5375C30.5958 37.6729 29.4937 36.5792 28.0875 35.6583C25.8875 34.2146 24.6437 33.3167 22.5083 31.9083C20.0396 30.2833 21.6396 29.3875 23.0458 27.9292C23.4146 27.5458 29.8104 21.7271 29.9354 21.2C29.95 21.1333 29.9646 20.8875 29.8187 20.7583C29.6729 20.6292 29.4562 20.6729 29.3 20.7083C29.0792 20.7597 25.5646 23.0826 18.7563 27.6771C17.7563 28.3646 16.8521 28.6979 16.0438 28.6771C15.1521 28.6604 13.4354 28.175 12.1583 27.7604C10.5917 27.25 9.34792 26.9812 9.45625 26.1167C9.51181 25.6667 10.1319 25.2062 11.3167 24.7354C18.6042 21.5604 23.4639 19.4674 25.8958 18.4562C32.8375 15.5687 34.2812 15.0667 35.2208 15.05Z" fill="white"/>
</g>
<defs>
<clipPath id="clip0_360_215">
<rect width="50" height="50" fill="white"/>
</clipPath>
</defs>
</svg>
