<svg width="100" height="100" viewBox="0 0 100 100" fill="none" xmlns="http://www.w3.org/2000/svg">
<path d="M33.334 87.5V79.1667H16.6673C14.3757 79.1667 12.4145 78.3514 10.784 76.7208C9.15343 75.0903 8.33676 73.1278 8.33398 70.8333V20.8333C8.33398 18.5417 9.15065 16.5806 10.784 14.95C12.4173 13.3194 14.3784 12.5028 16.6673 12.5H50.0007V20.8333H16.6673V70.8333H83.334V58.3333H91.6673V70.8333C91.6673 73.125 90.852 75.0875 89.2215 76.7208C87.5909 78.3542 85.6284 79.1694 83.334 79.1667H66.6673V87.5H33.334ZM70.834 58.3333L50.0007 37.5L55.834 31.6667L66.6673 42.3958V12.5H75.0007V42.3958L85.834 31.6667L91.6673 37.5L70.834 58.3333Z" fill="black"/>
</svg>
