<svg width="100" height="100" viewBox="0 0 100 100" fill="none" xmlns="http://www.w3.org/2000/svg">
<path d="M84.375 15.625H15.625C13.9674 15.625 12.3777 16.2835 11.2056 17.4556C10.0335 18.6277 9.375 20.2174 9.375 21.875V78.125C9.375 79.7826 10.0335 81.3723 11.2056 82.5444C12.3777 83.7165 13.9674 84.375 15.625 84.375H84.375C86.0326 84.375 87.6223 83.7165 88.7944 82.5444C89.9665 81.3723 90.625 79.7826 90.625 78.125V21.875C90.625 20.2174 89.9665 18.6277 88.7944 17.4556C87.6223 16.2835 86.0326 15.625 84.375 15.625ZM36.25 56.875C36.913 57.3723 37.3514 58.1126 37.4686 58.9331C37.5858 59.7535 37.3723 60.587 36.875 61.25C36.3777 61.913 35.6374 62.3514 34.8169 62.4686C33.9965 62.5858 33.163 62.3723 32.5 61.875L20 52.5C19.6119 52.2089 19.2969 51.8315 19.0799 51.3975C18.863 50.9636 18.75 50.4851 18.75 50C18.75 49.5149 18.863 49.0364 19.0799 48.6025C19.2969 48.1685 19.6119 47.7911 20 47.5L32.5 38.125C33.163 37.6277 33.9965 37.4142 34.8169 37.5314C35.6374 37.6486 36.3777 38.087 36.875 38.75C37.3723 39.413 37.5858 40.2465 37.4686 41.0669C37.3514 41.8874 36.913 42.6277 36.25 43.125L27.082 50L36.25 56.875ZM59.2539 28.9844L46.7539 72.7344C46.6474 73.1359 46.4618 73.5122 46.2081 73.8413C45.9545 74.1703 45.6377 74.4454 45.2764 74.6505C44.9151 74.8557 44.5166 74.9867 44.104 75.036C43.6915 75.0853 43.2733 75.0518 42.8739 74.9375C42.4744 74.8233 42.1018 74.6305 41.7777 74.3705C41.4537 74.1105 41.1847 73.7885 40.9866 73.4233C40.7885 73.0581 40.6652 72.6571 40.6239 72.2437C40.5826 71.8303 40.6241 71.4128 40.7461 71.0156L53.2461 27.2656C53.4863 26.4833 54.0239 25.8265 54.7432 25.4363C55.4625 25.046 56.3061 24.9535 57.0929 25.1786C57.8797 25.4037 58.5468 25.9284 58.9509 26.64C59.3549 27.3517 59.4637 28.1934 59.2539 28.9844ZM80 52.5L67.5 61.875C66.837 62.3723 66.0035 62.5858 65.1831 62.4686C64.3626 62.3514 63.6223 61.913 63.125 61.25C62.6277 60.587 62.4142 59.7535 62.5314 58.9331C62.6486 58.1126 63.087 57.3723 63.75 56.875L72.918 50L63.75 43.125C63.4217 42.8788 63.1451 42.5703 62.936 42.2172C62.7269 41.864 62.5894 41.4732 62.5314 41.0669C62.4734 40.6607 62.4959 40.247 62.5978 39.8494C62.6996 39.4519 62.8788 39.0783 63.125 38.75C63.3712 38.4217 63.6797 38.1451 64.0328 37.936C64.386 37.7269 64.7768 37.5894 65.1831 37.5314C65.5893 37.4734 66.003 37.4959 66.4006 37.5978C66.7981 37.6996 67.1717 37.8788 67.5 38.125L80 47.5C80.3881 47.7911 80.7031 48.1685 80.9201 48.6025C81.137 49.0364 81.25 49.5149 81.25 50C81.25 50.4851 81.137 50.9636 80.9201 51.3975C80.7031 51.8315 80.3881 52.2089 80 52.5Z" fill="white"/>
</svg>
